<svg fill="none" height="81" viewBox="0 0 313 81" width="313" xmlns="http://www.w3.org/2000/svg" xmlns:xlink="http://www.w3.org/1999/xlink"><linearGradient id="a" gradientUnits="userSpaceOnUse" x1="36.621" x2="36.621" y1=".929932" y2="80.0712"><stop offset="0" stop-color="#6364ff"/><stop offset="1" stop-color="#563acc"/></linearGradient><path d="m72.9455 18.4505c-1.1286-8.49847-8.4417-15.20721-17.0995-16.49782-1.4649-.21916-7.0007-1.022748-19.8254-1.022748h-.0961c-12.8366 0-15.5865.803588-17.0515 1.022748-8.4297 1.26626-16.11487 7.28099-17.988134 15.88912-.88860151 4.2371-.9846665 8.9369-.8165528 13.247.2401618 6.1852.2881948 12.346.8405678 18.5069.384259 4.091 1.044709 8.1455 1.993349 12.139 1.7772 7.3784 8.95807 13.515 15.99487 16.0109 7.529 2.6056 15.6346 3.0438 23.3917 1.254.8526-.2069 1.6932-.4382 2.5338-.7061 1.8853-.6088 4.0947-1.2906 5.7278-2.4838.0241-.0122.0361-.0365.0481-.0609.012-.0243.024-.0487.024-.0853v-5.966s0-.0487-.024-.073c0-.0243-.024-.0487-.0481-.0609-.024-.0121-.048-.0244-.0719-.0365-.0242 0-.0481 0-.0721 0-4.9715 1.2054-10.0748 1.8142-15.1783 1.802-8.802 0-11.1676-4.2372-11.84-5.9904-.5404-1.5219-.8886-3.117-1.0327-4.7241 0-.0244 0-.0487.012-.0731 0-.0243.024-.0487.0481-.0609.0239-.0121.0479-.0243.0719-.0365h.0841c4.8873 1.1932 9.9067 1.802 14.9381 1.802 1.2129 0 2.4136 0 3.6265-.0365 5.0554-.1462 10.3871-.4019 15.3704-1.388.12-.0244.2522-.0487.3602-.0731 7.8534-1.5341 15.3224-6.3313 16.0788-18.4825.0242-.4748.0962-5.0163.0962-5.5033 0-1.6925.5403-11.9686-.0841-18.2877z" fill="url(#a)"/><g fill="#fff"><path d="m14.8143 23.1993c0-2.4838 1.9574-4.4805 4.383-4.4805 2.4257 0 4.3829 2.0089 4.3829 4.4805s-1.9572 4.4806-4.3829 4.4806c-2.4256 0-4.383-2.009-4.383-4.4806z"/><path d="m80.0185 27.059v20.601h-7.9854v-19.9923c0-4.2127-1.7291-6.3435-5.1995-6.3435-3.8306 0-5.7639 2.5448-5.7639 7.5488v10.9459h-7.9253v-10.9459c0-5.0285-1.9093-7.5488-5.764-7.5488-3.4582 0-5.1995 2.1308-5.1995 6.3435v19.9802h-7.9734v-20.5889c0-4.2007 1.0447-7.549 3.1461-10.0327 2.1735-2.4839 5.0194-3.738 8.5378-3.738 4.0828 0 7.1809 1.6072 9.2223 4.8215l1.9934 3.4093 1.9933-3.4093c2.0413-3.2021 5.1275-4.8215 9.2222-4.8215 3.5184 0 6.3643 1.2664 8.5378 3.738 2.1014 2.4837 3.1461 5.8077 3.1461 10.0327zm27.4745 10.2395c1.657-1.7898 2.438-4.0057 2.438-6.7087s-.793-4.9432-2.438-6.6478c-1.585-1.7898-3.602-2.6422-6.04-2.6422-2.4377 0-4.443.8524-6.04 2.6422-1.5851 1.7046-2.3776 3.9448-2.3776 6.6478s.7925 4.9433 2.3776 6.7087c1.585 1.7046 3.6023 2.5692 6.04 2.5692 2.438 0 4.443-.8524 6.04-2.5692zm2.438-23.1822h7.865v32.9471h-7.865v-3.884c-2.378 3.2265-5.668 4.8215-9.9429 4.8215s-7.5652-1.6437-10.4832-5.0042c-2.8699-3.3604-4.3228-7.5123-4.3228-12.3825 0-4.8703 1.4649-8.9613 4.3228-12.3217 2.93-3.3604 6.4124-5.065 10.4832-5.065 4.0709 0 7.5649 1.5828 9.9429 4.7972v-3.884zm34.331 15.8526c2.318 1.7897 3.471 4.2858 3.411 7.4393 0 3.3604-1.153 6.0025-3.531 7.8288-2.377 1.7899-5.248 2.703-8.73 2.703-6.28 0-10.543-2.642-12.801-7.8289l6.822-4.1518c.911 2.8247 2.917 4.2858 5.979 4.2858 2.81 0 4.203-.9132 4.203-2.8248 0-1.388-1.826-2.6421-5.548-3.6161-1.405-.3897-2.569-.7915-3.47-1.1202-1.286-.5235-2.378-1.1201-3.291-1.8506-2.257-1.7898-3.409-4.152-3.409-7.1837 0-3.2264 1.092-5.7955 3.289-7.6462 2.259-1.9115 5.007-2.8248 8.298-2.8248 5.247 0 9.078 2.3012 11.588 6.9767l-6.701 3.9448c-.972-2.2403-2.63-3.3604-4.887-3.3604-2.378 0-3.531.9131-3.531 2.7029 0 1.3881 1.826 2.6422 5.548 3.6163 2.87.6574 5.127 1.6436 6.761 2.9099h.012zm25.001-7.695h-6.893v13.7097c0 1.6437.613 2.6421 1.777 3.0927.853.3287 2.558.3895 5.128.2678v7.7071c-5.296.6575-9.138.1217-11.395-1.6437-2.258-1.7046-3.351-4.8824-3.351-9.4117v-13.7219h-5.296v-8.1698h5.296v-6.64785l7.865-2.56905v9.2291h6.893v8.1698h-.012zm25.073 14.8299c1.585-1.7046 2.377-3.8841 2.377-6.5261 0-2.6422-.792-4.7972-2.377-6.5262-1.598-1.7045-3.543-2.569-5.92-2.569-2.378 0-4.323.8523-5.921 2.569-1.524 1.7898-2.317 3.945-2.317 6.5262 0 2.5811.793 4.7363 2.317 6.5261 1.586 1.7045 3.543 2.569 5.921 2.569 2.377 0 4.322-.8522 5.92-2.569zm-17.375 5.8564c-3.111-3.3604-4.636-7.4392-4.636-12.3825 0-4.9434 1.525-8.9612 4.636-12.3217 3.109-3.3605 6.952-5.0651 11.455-5.0651 4.502 0 8.358 1.7046 11.456 5.0651s4.695 7.5123 4.695 12.3217c0 4.8093-1.597 9.0221-4.695 12.3825-3.111 3.3605-6.893 5.0041-11.456 5.0041s-8.358-1.6436-11.455-5.0041zm53.903-5.6738c1.585-1.7898 2.378-4.0057 2.378-6.7087s-.793-4.9434-2.378-6.6479c-1.584-1.7899-3.601-2.6421-6.04-2.6421-2.437 0-4.455.8522-6.099 2.6421-1.586 1.7045-2.378 3.9449-2.378 6.6479s.792 4.9433 2.378 6.7087c1.656 1.7046 3.722 2.569 6.099 2.569 2.379 0 4.444-.8523 6.04-2.569zm2.378-36.368431h7.865v46.133231h-7.865v-3.884c-2.317 3.2265-5.608 4.8215-9.882 4.8215-4.275 0-7.613-1.6436-10.556-5.0042-2.87-3.3604-4.322-7.5122-4.322-12.3825 0-4.8702 1.464-8.9612 4.322-12.3216 2.918-3.3606 6.46-5.0651 10.556-5.0651 4.094 0 7.565 1.5828 9.882 4.7972v-17.082356zm35.496 36.149231c1.585-1.7046 2.378-3.8839 2.378-6.5261 0-2.642-.793-4.7972-2.378-6.5261-1.585-1.7045-3.53-2.569-5.92-2.569-2.389 0-4.322.8523-5.92 2.569-1.525 1.7899-2.318 3.9449-2.318 6.5261 0 2.5813.793 4.7363 2.318 6.5261 1.586 1.7047 3.543 2.5691 5.92 2.5691 2.378 0 4.323-.8523 5.92-2.5691zm-17.376 5.8565c-3.097-3.3605-4.635-7.4393-4.635-12.3826 0-4.9432 1.526-8.9612 4.635-12.3216 3.11-3.3605 6.953-5.0651 11.456-5.0651s8.358 1.7046 11.456 5.0651c3.109 3.3604 4.695 7.5123 4.695 12.3216 0 4.8094-1.586 9.0221-4.695 12.3826-3.11 3.3604-6.893 5.0042-11.456 5.0042s-8.358-1.6438-11.456-5.0042zm61.638-16.1448v20.2357h-7.865v-19.1764c0-2.1795-.541-3.8232-1.657-5.065-1.033-1.1203-2.498-1.7047-4.384-1.7047-4.442 0-6.7 2.703-6.7 8.1698v17.7886h-7.865v-32.9228h7.865v3.7014c1.885-3.0927 4.887-4.6146 9.078-4.6146 3.35 0 6.1 1.1811 8.238 3.6162 2.198 2.4351 3.29 5.7347 3.29 10.0083"/></g></svg>