<svg fill="none" height="80" viewBox="0 0 314 80" width="314" xmlns="http://www.w3.org/2000/svg" xmlns:xlink="http://www.w3.org/1999/xlink"><linearGradient id="a" gradientUnits="userSpaceOnUse" x1="37.121" x2="37.121" y1=".175659" y2="79.3169"><stop offset="0" stop-color="#6364ff"/><stop offset="1" stop-color="#563acc"/></linearGradient><path d="m73.4455 17.6962c-1.1286-8.49845-8.4417-15.20719-17.0995-16.49779-1.4649-.219163-7.0007-1.022751-19.8254-1.022751h-.0961c-12.8366 0-15.5865.803588-17.0515 1.022751-8.4297 1.26626-16.11487 7.28099-17.98813 15.88909-.888606 4.2371-.984671 8.9369-.816557 13.247.240162 6.1853.288195 12.346.840567 18.5069.38426 4.0911 1.04471 8.1455 1.99335 12.139 1.7772 7.3784 8.95807 13.515 15.99487 16.011 7.529 2.6055 15.6346 3.0438 23.3917 1.2539.8526-.2068 1.6932-.4382 2.5338-.7061 1.8853-.6088 4.0947-1.2906 5.7278-2.4837.0241-.0123.0361-.0366.0481-.061.012-.0243.024-.0487.024-.0852v-5.966s0-.0487-.024-.0731c0-.0243-.024-.0487-.0481-.0609-.024-.0121-.048-.0243-.0719-.0365-.0242 0-.0481 0-.0721 0-4.9715 1.2055-10.0748 1.8142-15.1783 1.802-8.802 0-11.1676-4.2371-11.84-5.9904-.5404-1.5219-.8886-3.1169-1.0327-4.7241 0-.0244 0-.0487.012-.073 0-.0244.024-.0487.0481-.061.0239-.0121.0479-.0243.0719-.0364h.0841c4.8873 1.1931 9.9067 1.8019 14.9381 1.8019 1.2129 0 2.4136 0 3.6265-.0364 5.0554-.1462 10.3871-.4019 15.3704-1.3881.12-.0244.2522-.0487.3602-.073 7.8534-1.5342 15.3224-6.3314 16.0788-18.4826.0242-.4748.0962-5.0163.0962-5.5033 0-1.6925.5403-11.9686-.0841-18.2877z" fill="url(#a)"/><path d="m15.3145 22.4452c0-2.4839 1.9573-4.4806 4.3829-4.4806 2.4257 0 4.3829 2.0089 4.3829 4.4806 0 2.4716-1.9572 4.4805-4.3829 4.4805-2.4256 0-4.3829-2.0089-4.3829-4.4805z" fill="#fff"/><path d="m80.5188 26.3048v20.601h-7.9854v-19.9922c0-4.2128-1.7292-6.3436-5.1996-6.3436-3.8305 0-5.7639 2.5448-5.7639 7.5489v10.9458h-7.9253v-10.9458c0-5.0285-1.9093-7.5489-5.7639-7.5489-3.4583 0-5.1996 2.1308-5.1996 6.3436v19.9801h-7.9733v-20.5889c0-4.2006 1.0447-7.5489 3.1461-10.0327 2.1735-2.4838 5.0194-3.7379 8.5377-3.7379 4.0828 0 7.1809 1.6071 9.2224 4.8215l1.9933 3.4092 1.9934-3.4092c2.0413-3.2021 5.1274-4.8215 9.2222-4.8215 3.5183 0 6.3643 1.2663 8.5378 3.7379 2.1014 2.4838 3.1461 5.8077 3.1461 10.0327zm27.4742 10.2396c1.657-1.7898 2.438-4.0058 2.438-6.7087 0-2.703-.793-4.9433-2.438-6.6478-1.585-1.7899-3.602-2.6422-6.04-2.6422-2.4374 0-4.4428.8523-6.0398 2.6422-1.5851 1.7045-2.3776 3.9448-2.3776 6.6478 0 2.7029.7925 4.9432 2.3776 6.7087 1.585 1.7045 3.6024 2.5691 6.0398 2.5691 2.438 0 4.443-.8523 6.04-2.5691zm2.438-23.1822h7.865v32.9471h-7.865v-3.884c-2.378 3.2264-5.668 4.8215-9.943 4.8215-4.2746 0-7.5648-1.6438-10.4828-5.0042-2.8699-3.3604-4.3229-7.5124-4.3229-12.3826s1.4649-8.9612 4.3229-12.3217c2.93-3.3604 6.4124-5.0649 10.4828-5.0649 4.071 0 7.565 1.5828 9.943 4.7971v-3.884zm34.331 15.8526c2.318 1.7897 3.471 4.2858 3.411 7.4392 0 3.3604-1.153 6.0026-3.531 7.8289-2.377 1.7898-5.248 2.7029-8.73 2.7029-6.28 0-10.543-2.642-12.801-7.8288l6.822-4.1519c.911 2.8247 2.918 4.2858 5.979 4.2858 2.81 0 4.203-.9131 4.203-2.8248 0-1.3879-1.826-2.642-5.548-3.6161-1.405-.3896-2.569-.7914-3.47-1.1201-1.285-.5235-2.378-1.1202-3.291-1.8507-2.257-1.7898-3.409-4.1519-3.409-7.1836 0-3.2265 1.092-5.7956 3.29-7.6462 2.258-1.9116 5.007-2.8248 8.297-2.8248 5.247 0 9.078 2.3012 11.588 6.9766l-6.7 3.9448c-.973-2.2402-2.631-3.3604-4.888-3.3604-2.378 0-3.53.9132-3.53 2.703 0 1.3881 1.825 2.6422 5.548 3.6162 2.87.6575 5.127 1.6437 6.76 2.91h.012zm25.002-7.695h-6.894v13.7097c0 1.6436.613 2.642 1.778 3.0926.852.3287 2.558.3895 5.128.2678v7.7072c-5.296.6574-9.139.1217-11.396-1.6438-2.258-1.7046-3.351-4.8823-3.351-9.4117v-13.7218h-5.296v-8.1699h5.296v-6.6478l7.865-2.56905v9.22915h6.894v8.1698h-.012zm25.072 14.8298c1.586-1.7045 2.377-3.884 2.377-6.526 0-2.6422-.791-4.7972-2.377-6.5262-1.597-1.7046-3.543-2.5691-5.92-2.5691-2.378 0-4.323.8524-5.92 2.5691-1.525 1.7898-2.318 3.9449-2.318 6.5262 0 2.5811.793 4.7362 2.318 6.526 1.585 1.7046 3.542 2.569 5.92 2.569 2.377 0 4.323-.8522 5.92-2.569zm-17.375 5.8564c-3.111-3.3604-4.635-7.4392-4.635-12.3824 0-4.9434 1.524-8.9613 4.635-12.3217 3.11-3.3606 6.952-5.0651 11.455-5.0651s8.358 1.7045 11.456 5.0651c3.098 3.3604 4.695 7.5122 4.695 12.3217 0 4.8092-1.597 9.022-4.695 12.3824-3.111 3.3606-6.892 5.0042-11.456 5.0042-4.563 0-8.357-1.6436-11.455-5.0042zm53.903-5.6737c1.586-1.7898 2.378-4.0058 2.378-6.7087 0-2.703-.792-4.9434-2.378-6.648-1.584-1.7898-3.601-2.642-6.039-2.642-2.437 0-4.456.8522-6.1 2.642-1.585 1.7046-2.378 3.945-2.378 6.648 0 2.7029.793 4.9432 2.378 6.7087 1.656 1.7045 3.723 2.569 6.1 2.569 2.378 0 4.443-.8523 6.039-2.569zm2.378-36.368482h7.865v46.133282h-7.865v-3.8841c-2.317 3.2266-5.607 4.8215-9.882 4.8215s-7.613-1.6436-10.556-5.0041c-2.87-3.3605-4.322-7.5123-4.322-12.3825s1.464-8.9612 4.322-12.3217c2.918-3.3605 6.461-5.0651 10.556-5.0651s7.565 1.5829 9.882 4.7972v-17.082306zm35.496 36.149182c1.585-1.7045 2.378-3.8839 2.378-6.526s-.793-4.7972-2.378-6.5261c-1.584-1.7046-3.53-2.569-5.92-2.569-2.389 0-4.322.8522-5.919 2.569-1.526 1.7898-2.319 3.9448-2.319 6.5261 0 2.5812.793 4.7362 2.319 6.526 1.585 1.7047 3.542 2.5692 5.919 2.5692 2.378 0 4.324-.8524 5.92-2.5692zm-17.375 5.8566c-3.098-3.3606-4.636-7.4394-4.636-12.3826 0-4.9433 1.526-8.9613 4.636-12.3217 3.109-3.3604 6.952-5.0651 11.455-5.0651 4.504 0 8.358 1.7047 11.456 5.0651 3.11 3.3604 4.695 7.5124 4.695 12.3217 0 4.8094-1.585 9.022-4.695 12.3826-3.11 3.3604-6.892 5.0041-11.456 5.0041-4.563 0-8.358-1.6437-11.455-5.0041zm61.637-16.1448v20.2357h-7.865v-19.1765c0-2.1795-.541-3.8231-1.657-5.065-1.033-1.1202-2.498-1.7046-4.384-1.7046-4.442 0-6.7 2.7029-6.7 8.1698v17.7885h-7.865v-32.9228h7.865v3.7014c1.885-3.0926 4.887-4.6145 9.079-4.6145 3.349 0 6.099 1.1811 8.238 3.6161 2.197 2.4352 3.289 5.7348 3.289 10.0083" fill="#000"/></svg>