<?xml version="1.0" encoding="UTF-8" standalone="no"?>
<svg
   width="145"
   height="145"
   version="1.1"
   id="svg11"
   sodipodi:docname="ars.svg"
   inkscape:version="1.3.2 (091e20e, 2023-11-25)"
   xmlns:inkscape="http://www.inkscape.org/namespaces/inkscape"
   xmlns:sodipodi="http://sodipodi.sourceforge.net/DTD/sodipodi-0.dtd"
   xmlns="http://www.w3.org/2000/svg"
   xmlns:svg="http://www.w3.org/2000/svg">
  <defs
     id="defs11" />
  <sodipodi:namedview
     id="namedview11"
     pagecolor="#ffffff"
     bordercolor="#666666"
     borderopacity="1.0"
     inkscape:showpageshadow="2"
     inkscape:pageopacity="0.0"
     inkscape:pagecheckerboard="0"
     inkscape:deskcolor="#d1d1d1"
     showguides="false"
     inkscape:zoom="1.9201872"
     inkscape:cx="218.72867"
     inkscape:cy="72.388774"
     inkscape:window-width="1440"
     inkscape:window-height="847"
     inkscape:window-x="0"
     inkscape:window-y="25"
     inkscape:window-maximized="1"
     inkscape:current-layer="svg11" />
  <g
     id="ars-icon-logo-ars-us">
    <title
       id="title1">logo-ars-us</title>
    <circle
       cx="72.199997"
       cy="72.199997"
       r="72.199997"
       style="fill:#ff4e00"
       id="circle1" />
    <g
       id="g3">
      <path
         d="m 790.3,-658 -0.9,-5.9 a 20.8,20.8 0 0 1 -15.6,6.8 c -8,0 -13,-4.8 -13,-12.3 0,-11 9.4,-15.4 27.9,-17.3 v -1.9 c 0,-5.6 -3.3,-7.5 -8.4,-7.5 -5.1,0 -10.5,1.7 -15.3,3.8 l -1.1,-7.1 c 5.3,-2.1 10.3,-3.7 17.1,-3.7 10.7,0 15.9,4.3 15.9,14.2 v 30.9 h -6.7 z m -1.6,-22.4 c -16.3,1.6 -19.7,6 -19.7,10.6 0,4.6 2.4,5.9 6.6,5.9 4.2,0 9.4,-2.4 13.1,-6.2 z"
         transform="translate(-743.7,752.2)"
         style="fill:#ffffff"
         id="path1" />
      <path
         d="m 816.1,-684.1 v 26.1 h -8.2 v -44.1 h 6.6 l 1.4,9 c 3.1,-5 8.2,-9.5 15.5,-9.9 l 1.3,7.9 c -7.4,0.3 -13.6,5.2 -16.6,11 z"
         transform="translate(-743.7,752.2)"
         style="fill:#ffffff"
         id="path2" />
      <path
         d="m 853.4,-657.1 a 36.2,36.2 0 0 1 -16.1,-4.2 l 1.2,-7.8 a 27.6,27.6 0 0 0 15.6,5.1 c 5.6,0 9,-2.1 9,-5.8 0,-3.7 -2.5,-5.6 -10.5,-7.5 -10.4,-2.6 -14.5,-5.7 -14.5,-13.6 0,-7.9 5.9,-12.2 15.6,-12.2 a 35.7,35.7 0 0 1 14.5,3 l -1.3,7.8 a 28.2,28.2 0 0 0 -13.4,-3.8 c -5,0 -7.6,1.9 -7.6,5.1 0,3.2 2.2,4.6 9.2,6.4 10.9,2.8 15.8,5.9 15.8,14.3 0,8.4 -6.1,13.2 -17.5,13.2 z"
         transform="translate(-743.7,752.2)"
         style="fill:#ffffff"
         id="path3" />
    </g>
  </g>
</svg>
