<svg clip-rule="evenodd" fill-rule="evenodd" stroke-linejoin="round" stroke-miterlimit="2" viewBox="0 0 1785 2331" xmlns="http://www.w3.org/2000/svg"><g transform="matrix(2.56266455013 0 0 3.09669831069 -679.8755439 -724.01724588)"><path d="m265.3 233.803h696.371v752.52h-696.371z" fill="none"/><path d="m899.772 685.624c-13.541-5.675-24.253-18.622-33.102-40.013-14.271-34.496-18.962-83.754-12.696-133.319.621-4.91 1.025-9.405.897-9.989-.278-1.277-21.956 12.377-43.843 27.615-51.38 35.771-70.893 46.21-86.383 46.21-9.082 0-12.907-3.243-12.912-10.948-.004-5.241 2.5-10.338 7.268-14.798 3.402-3.182 5.954-4.166 6.888-2.655.235.38-1.5 2.818-3.856 5.417-5.117 5.646-6.666 8.66-6.666 12.967 0 10.932 17.113 8.681 40.557-5.333 10.581-6.325 29.626-19.453 48.67-33.55 20.286-15.014 34.143-24.898 45.139-32.195 8.125-5.392 7.761-4.843 9.641-14.541.466-2.4 1.963-8.847 3.329-14.327 1.365-5.48 2.481-10.716 2.479-11.636-.001-.921-1.322-5.928-2.934-11.128-14.181-45.732-25.677-90.958-31.888-125.455-1.778-9.877-5.867-36.399-5.916-38.376-.02-.819-6.693 11.194-13.842 24.922l-6.44 12.363 4.683 8.355c36.279 64.723 29.762 145.699-14.404 178.979-14.718 11.09-31.55 16.659-57.983 19.183-26.219 2.504-33.93 3.529-41.551 5.528l-2.641.692-.496 7.086c-1.885 26.941-8.045 48.385-15.807 55.029-8.704 7.451-17.276 2.097-21.451-13.397-1.799-6.675-1.785-22.014.026-27.962 3.815-12.535 11.186-21.293 24.535-29.155l5.524-3.254.449-19.451c.47-20.382 1.222-27.497 3.279-31.029 3.261-5.599 3.591-3.66 4.223 24.851.268 12.1.552 22 .63 22 .079 0 2.076-.667 4.438-1.482 6.538-2.255 13.656-3.963 33.093-7.942 19.008-3.89 28.519-6.683 36.658-10.762 12.71-6.37 21.915-15.339 28.679-27.942 2.852-5.316 6.845-15.136 6.353-15.628-.143-.143-1.661.235-3.374.839s-4.955 1.095-7.204 1.091c-10.414-.018-18.293-8.19-22.43-23.265-1.811-6.601-1.786-30.049.043-40 2.842-15.466 8.66-34.465 15.313-50.008l2.536-5.925-4.574-7.615c-24.7-41.126-57.697-63.496-87.588-59.382-17 2.34-31.63 10.364-45.889 25.169-21.209 22.02-34.17 54.374-34.21 85.397-.038 29.168 10.912 48.288 31.503 55.006 5.149 1.68 7.134 1.934 15.024 1.926 12.623-.014 22.517-2.32 35.448-8.26 11.539-5.301 25.81-15.777 33.311-24.451 12.37-14.304 18.513-30.004 18.513-47.31 0-15.438-4.282-24.394-13.98-29.24-5.21-2.604-10.556-2.933-16.254-1.001-5.639 1.913-11.953 8.697-15.923 17.108-5.97 12.65-8.279 25.588-8.899 49.867-.463 18.154-.831 19.972-3.726 18.423-7.937-4.248-7.774-35.807.311-60.144 7.641-23 23.609-36.06 40.471-33.099 23.089 4.053 33.552 31.145 23.765 61.539-4.194 13.024-10.634 23.334-21.401 34.257-15.138 15.357-33.441 25.964-54.036 31.314-9.464 2.458-24.23 3.125-32.277 1.458-36.189-7.499-52.824-44.664-42.697-95.393 5.706-28.581 22.882-58.678 43.619-76.431 29.623-25.362 63.658-30.336 96.084-14.042 17.764 8.926 36.058 25.074 50.811 44.85l4.48 6.005 11.965-20.918 11.966-20.918-.4-4.728c-3.511-41.58-1.551-80.625 5.461-108.727 7.318-29.333 19.99-48.844 30.784-47.397 6.091.817 10.177 8.025 12.007 21.179 3.617 26.007-5.553 67.699-23.203 105.491-2.904 6.218-3.035 6.79-2.625 11.441 1.027 11.635 8.857 50.144 15.734 77.38 5.976 23.671 20.905 75.272 22.131 76.499.189.188.507-.113.706-.671 3.854-10.777 6.944-20.422 6.944-21.674 0-.876-1.287-8.04-2.861-15.92-2.842-14.233-4.993-28.091-6.74-43.419-1.239-10.87-1.22-45.992.029-54.909 3.525-25.165 10.043-41.185 18.547-45.583 3.572-1.846 8.745-.963 11.86 2.026 14.387 13.806 14.762 62.588.933 121.169l-2.098 8.885 3.583 12.634c6.233 21.977 17.261 54.6 26.138 77.318l3.728 9.539 6.713-1.514c5.628-1.269 9.007-1.504 20.896-1.452 21.002.091 27.457 2.146 37.153 11.83 19.26 19.235 21.44 70.371 3.77 88.551-1.76 1.812-5.23 4.212-7.88 5.454-4.471 2.092-5.15 2.202-11.835 1.934-6.505-.261-7.602-.53-13.241-3.239-12.047-5.788-22.947-16.489-34.767-34.131-6.277-9.369-17.023-29.595-22.297-41.966-1.492-3.5-2.85-6.364-3.018-6.364-1.507 0-11.885 5.526-11.885 6.329 0 .569 3.081 10.751 6.846 22.626 20.698 65.269 27.399 93.33 29.512 123.568 1.874 26.839-3.156 48.281-13.904 59.265-5.866 5.995-10.754 8.136-19.182 8.403-5.623.178-7.154-.048-10.867-1.604zm9.825-27.618c2.244-5.073 2.959-10.206 2.947-21.151-.019-16.859-2.923-34.212-10.931-65.33-5.593-21.732-23.56-80.954-24.996-82.389-.616-.617-4.777 1.788-5.505 3.181-.892 1.709-2.898 18.506-3.754 31.447-3.514 53.143 7.961 105.165 28.598 129.639 3.263 3.87 8.741 7.816 10.849 7.816.921 0 1.837-1.053 2.792-3.213zm-238.446-71.514c5.745-6.132 10.677-25.185 11.959-46.204l.478-7.84-3.439 1.474c-14.21 6.091-21.478 17.004-21.501 32.283-.017 11.539 4.55 22.287 9.472 22.287.636 0 2-.9 3.031-2zm330.949-56.728c7.48-7.817 9.93-29.164 5.38-46.815-3.65-14.159-8.277-20.538-18.562-25.568l-6.279-3.071h-10.909c-7.837 0-12.649.375-17.089 1.331-3.398.732-6.321 1.473-6.493 1.645-.501.501 2.581 7.65 9.444 21.914 10.681 22.199 20.37 37.346 29.505 46.12 7.153 6.872 11.459 8.147 15.003 4.444zm-92.007-69.451c2.9-1.302 5.272-2.67 5.273-3.039 0-.37-2.093-6.589-4.653-13.819-4.025-11.371-6.883-20.474-13.372-42.6l-1.386-4.727-3.496 10.806-3.495 10.806 6.746 20.83c7.813 24.123 7.806 24.102 8.548 24.106.31.001 2.936-1.062 5.835-2.363zm-113.42-23.019c1.487-.758 4.392-3.164 6.456-5.347 4.669-4.936 4.931-6.349 4.403-23.725-.442-14.551-2.233-26.315-6.006-39.435-2.402-8.355-7.871-23.016-9.014-24.165-1.377-1.385-9.499 25.489-12.049 39.87-1.785 10.061-2.226 27.077-.896 34.545 2.227 12.512 6.528 19.636 11.853 19.636 1.403 0 3.767-.62 5.253-1.379zm112.172-123.565c5.192-24.936 7.323-47.542 5.907-62.664-1.59-16.97-6.693-29.501-10.67-26.199-1.604 1.331-3.83 7.412-5.188 14.173-1.88 9.364-1.894 39.562-.024 53.453 1.209 8.977 5.058 30.344 6.091 33.806.409 1.372.46 1.361 1.044-.217.337-.912 1.615-6.471 2.84-12.352zm-62.845-89.419c19.83-43.049 27.602-84.553 19.759-105.516-1.604-4.285-4.756-8.121-6.675-8.121-1.665 0-5.911 3.998-7.949 7.485-8.271 14.152-12.792 48.37-10.756 81.409.866 14.05 2.352 30.379 2.765 30.379.143 0 1.428-2.536 2.856-5.636z" fill-rule="nonzero" fill="#333333" transform="matrix(1.4292 .641534 -.775223 1.18273 -203.405 -428.985)"/></g></svg>