<svg clip-rule="evenodd" stroke-linecap="round" stroke-linejoin="round" viewBox="0 0 1024 1024" xmlns="http://www.w3.org/2000/svg" xmlns:xlink="http://www.w3.org/1999/xlink"><linearGradient id="a" gradientUnits="userSpaceOnUse" x1="27.5156" x2="996.211" y1="16.3438" y2="980.367"><stop offset="0" stop-color="#a7cbff"/><stop offset="1" stop-color="#fff"/></linearGradient><linearGradient id="b"><stop offset=".00863391" stop-color="#334e8c"/><stop offset="1" stop-color="#0c326b"/></linearGradient><radialGradient id="c" cx="535.65" cy="577.829" gradientTransform="matrix(.455855 .370064 .0932032 .325819 205.735 93.1101)" gradientUnits="userSpaceOnUse" r="253.767" xlink:href="#b"/><radialGradient id="d" cx="535.65" cy="577.829" gradientTransform="matrix(.565697 .157282 .215539 .26151 38.0935 301.335)" gradientUnits="userSpaceOnUse" r="253.767" xlink:href="#b"/><radialGradient id="e" cx="535.65" cy="577.829" gradientTransform="matrix(.584304 -.0577925 .295482 .165938 -15.2581 533.024)" gradientUnits="userSpaceOnUse" r="253.767" xlink:href="#b"/><path d="m0 0h1024v1024h-1024z" fill="url(#a)"/><path d="m190.598 513.032c232.463-383.405 760.325-605.2746 1179.012-495.5599 418.69 109.7149 569.65 509.4669 337.19 892.8719-232.46 383.406-760.326 605.276-1179.013 495.556-418.688-109.71-569.6522-509.463-337.189-892.868z" fill="#021839"/><path d="m519.273 212.439c-46.887-.209-95.401 5.323-144.156 17.219-251.492 61.365-414.3027 268.483-363.6252 462.594 50.6776 194.111 295.6332 301.708 547.1252 240.344 41.68-10.17 80.854-24.391 117.094-41.844 80.81-62.782 147.567-148.838 187.125-250.844 30.693-79.148 41.392-158.62 34.718-232.594-64.01-120.032-210.828-194.128-378.281-194.875z" fill="#0c326b"/><path d="m553 21.2188c-204.287 1.4428-411.106 146.5682-495.2188 363.4692-99.6886 257.067 10.7438 517.581 246.6568 581.874 142.3 38.778 297.689-2.751 420.531-98.187-36.24 17.453-75.414 31.674-117.094 41.844-251.492 61.364-496.447-46.233-547.125-240.344-50.6775-194.111 112.134-401.229 363.625-462.594 222.882-54.383 440.504 24.015 522.437 177.657-15.001-166.289-118.096-304.7837-281.374-349.2818-36.862-10.0457-74.607-14.7047-112.438-14.4374z" fill="#155abf"/><path d="m972.74 419.529c6.674 73.974-4.026 153.446-34.719 232.594-39.557 102.006-106.314 188.062-187.125 250.844 182.425-87.859 288.814-258.778 246.532-420.719-5.765-22.083-14.17-42.997-24.688-62.719z" fill="#062450"/><path d="m366.578 368.23c-13.654-47.731 36.7-36.562 112.469 24.948 75.769 61.509 148.261 150.067 161.915 197.798s-36.7 36.562-112.47-24.948c-75.769-61.51-148.261-150.067-161.914-197.798z" fill="url(#c)"/><path d="m295.405 489.357c-31.576-38.311 19.05-48.175 113.077-22.032 94.026 26.142 195.847 78.391 227.423 116.702 31.575 38.31-19.051 48.174-113.077 22.032-94.027-26.143-195.848-78.392-227.423-116.702z" fill="url(#d)"/><path d="m292.613 615.344c-43.287-24.309.352-51.803 97.472-61.409 97.119-9.605 210.94 2.314 254.227 26.623 43.287 24.31-.352 51.804-97.472 61.409-97.119 9.606-210.94-2.313-254.227-26.623z" fill="url(#e)"/><path d="m395.358 576.257c0-107.059 85.562-193.848 191.109-193.848s191.109 86.789 191.109 193.848-85.562 193.847-191.109 193.847-191.109-86.788-191.109-193.847z" fill="#b4d3ff"/><path d="m257.602 452.384c0-30.137 23.935-54.569 53.46-54.569 29.526 0 53.461 24.432 53.461 54.569 0 30.138-23.935 54.569-53.461 54.569-29.525 0-53.46-24.431-53.46-54.569z" fill="#001d48"/></svg>