<?xml version="1.0" encoding="UTF-8" standalone="no"?>
<svg
   version="1.1"
   viewBox="0 0 44.035 44.035"
   xml:space="preserve"
   id="svg12"
   sodipodi:docname="techdirt.svg"
   width="44.035"
   height="44.035"
   inkscape:version="1.3.2 (091e20e, 2023-11-25)"
   xmlns:inkscape="http://www.inkscape.org/namespaces/inkscape"
   xmlns:sodipodi="http://sodipodi.sourceforge.net/DTD/sodipodi-0.dtd"
   xmlns="http://www.w3.org/2000/svg"
   xmlns:svg="http://www.w3.org/2000/svg"
   xmlns:rdf="http://www.w3.org/1999/02/22-rdf-syntax-ns#"
   xmlns:cc="http://creativecommons.org/ns#"
   xmlns:dc="http://purl.org/dc/elements/1.1/"><defs
   id="defs12" /><sodipodi:namedview
   id="namedview12"
   pagecolor="#ffffff"
   bordercolor="#666666"
   borderopacity="1.0"
   inkscape:showpageshadow="2"
   inkscape:pageopacity="0.0"
   inkscape:pagecheckerboard="0"
   inkscape:deskcolor="#d1d1d1"
   inkscape:zoom="2.2233333"
   inkscape:cx="150.22489"
   inkscape:cy="22.038981"
   inkscape:window-width="1312"
   inkscape:window-height="449"
   inkscape:window-x="0"
   inkscape:window-y="25"
   inkscape:window-maximized="0"
   inkscape:current-layer="g8" />
<title
   id="title1">Techdirt logo</title>
<desc
   id="desc1">Technology news website specialising in legal and policy section</desc>
		<g
   fill="#2566af"
   id="g3">
				<circle
   cx="38.130001"
   cy="5.9060001"
   r="5.2870002"
   id="circle1" />
				<circle
   cx="21.708"
   cy="5.9060001"
   r="5.2880001"
   id="circle2" />
				<circle
   cx="21.709"
   cy="38.748001"
   r="5.2870002"
   id="circle3" />
				<path
   d="m 24.362,17.759 h 0.015 c -1.195,-0.938 -1.217,-2.223 -1.217,-3.642 0,-1.419 0.022,-2.705 1.217,-3.643 h -0.015 c 1.574,-0.916 2.635,-2.616 2.635,-4.568 0,-2.921 -2.368,-5.287 -5.287,-5.287 -1.953,0 -3.654,1.061 -4.569,2.634 V 3.238 C 16.203,4.432 14.918,4.454 13.499,4.454 12.08,4.454 10.795,4.433 9.858,3.238 V 3.253 C 8.94,1.68 7.24,0.619 5.288,0.619 2.367,0.619 0,2.985 0,5.906 c 0,2.92 2.367,5.287 5.288,5.287 1.952,0 3.653,-1.062 4.569,-2.635 v 0.016 c 0.938,-1.195 2.222,-1.218 3.641,-1.218 1.419,0 2.704,0.022 3.642,1.218 V 8.559 c 0.461,0.793 1.123,1.454 1.917,1.916 h -0.016 c 1.195,0.938 1.216,2.224 1.216,3.643 0,1.419 -0.021,2.704 -1.216,3.642 h 0.014 c -1.573,0.916 -2.634,2.616 -2.634,4.568 0,2.919 2.367,5.286 5.288,5.286 2.919,0 5.287,-2.367 5.287,-5.286 0,-1.953 -1.06,-3.653 -2.634,-4.569 z"
   id="path3" />
		</g><g
   fill="#b8b9bb"
   id="g5">
		<circle
   cx="5.2870002"
   cy="22.327"
   r="5.2870002"
   id="circle4" />
		<path
   d="m 40.76,34.092 c -1.091,-0.93 -1.122,-2.178 -1.122,-3.553 0,-1.379 0.03,-2.627 1.126,-3.559 1.654,-0.893 2.778,-2.643 2.778,-4.653 0,-2.92 -2.367,-5.287 -5.287,-5.287 -2.92,0 -5.288,2.367 -5.288,5.287 0,1.952 1.062,3.653 2.637,4.569 H 35.52 c 1.194,0.938 1.216,2.223 1.216,3.643 0,1.418 -0.021,2.703 -1.216,3.641 h 0.082 c -1.573,0.916 -2.634,2.617 -2.634,4.568 0,2.92 2.368,5.287 5.288,5.287 2.92,0 5.287,-2.367 5.287,-5.287 -10e-4,-2.014 -1.127,-3.764 -2.783,-4.656 z"
   id="path4" />
		<circle
   cx="5.2870002"
   cy="38.748001"
   r="5.2870002"
   id="circle5" /></g><g
   fill="#2566af"
   id="g8">
		
		
		
		</g><metadata
   id="metadata12"><rdf:RDF><cc:Work
       rdf:about=""><dc:title>Techdirt logo</dc:title></cc:Work></rdf:RDF></metadata></svg>
